<svg width="32" height="32" viewBox="0 0 32 32" fill="none" xmlns="http://www.w3.org/2000/svg">
<g clip-path="url(#clip0_771_1173)">
<path d="M19.0389 2.6665C20.1868 2.6665 21.2059 3.40098 21.5688 4.48989L22.2944 6.6665H26.6667C27.4031 6.6665 28 7.26346 28 7.99984C28 8.7362 27.4031 9.33314 26.6667 9.33317L26.6633 9.42817L25.5068 25.6181C25.3573 27.7114 23.6156 29.3332 21.5171 29.3332H10.483C8.38443 29.3332 6.64267 27.7114 6.49315 25.6181L5.33672 9.42817C5.33444 9.3963 5.33331 9.36462 5.33328 9.33317C4.59692 9.33314 4 8.7362 4 7.99984C4 7.26346 4.59696 6.6665 5.33333 6.6665H9.70565L10.4312 4.48989C10.7942 3.40098 11.8132 2.6665 12.961 2.6665H19.0389ZM23.9967 9.33317H8.0034L9.15304 25.4281C9.20288 26.126 9.78347 26.6665 10.483 26.6665H21.5171C22.2165 26.6665 22.7971 26.126 22.8469 25.4281L23.9967 9.33317ZM13.3333 13.3332C14.0171 13.3332 14.5807 13.8479 14.6577 14.511L14.6667 14.6665V21.3332C14.6667 22.0696 14.0697 22.6665 13.3333 22.6665C12.6495 22.6665 12.086 22.1518 12.009 21.4887L12 21.3332V14.6665C12 13.9301 12.5969 13.3332 13.3333 13.3332ZM18.6667 13.3332C19.4031 13.3332 20 13.9301 20 14.6665V21.3332C20 22.0696 19.4031 22.6665 18.6667 22.6665C17.9303 22.6665 17.3333 22.0696 17.3333 21.3332V14.6665C17.3333 13.9301 17.9303 13.3332 18.6667 13.3332ZM19.0389 5.33317H12.961L12.5166 6.6665H19.4835L19.0389 5.33317Z" fill="#5A6374"/>
</g>
<defs>
<clipPath id="clip0_771_1173">
<rect width="32" height="32" fill="white"/>
</clipPath>
</defs>
</svg>
